<?xml version="1.0" encoding="UTF-8"?>
<svg width="700pt" height="700pt" version="1.1" viewBox="0 0 700 700" xmlns="http://www.w3.org/2000/svg">
 <path d="m580.22 272.22c-12.445-54.445-42-88.668-94.891-116.67 14 70-59.109 101.11-107.33 85.555 9.332-15.555 14-34.223 14-54.445 0-60.668-48.223-108.89-108.89-108.89-52.891 0-96.445 37.332-107.33 88.668-15.555 3.1094-31.109 4.668-46.668 4.668-4.668 0-9.332 3.1094-12.445 6.2227-3.1094 3.1133-3.1094 10.891 0.003907 15.559 9.332 24.891 37.332 35.777 68.445 40.445 3.1094 7.7773 7.7773 15.555 14 21.777-32.668 21.777-54.445 60.668-54.445 102.67 0 68.445 56 124.45 124.45 124.45h146.22c52.891 0 101.11-23.332 133.78-65.332 31.109-40.449 43.555-93.34 31.109-144.67zm-312.67-132.22c9.332 0 15.555 6.2227 15.555 15.555 0 9.332-6.2227 15.555-15.555 15.555-9.332 0-15.555-6.2227-15.555-15.555 0-9.332 7.7773-15.555 15.555-15.555z"/>
</svg>
